<?xml version="1.0" standalone="no"?>
<!DOCTYPE svg PUBLIC "-//W3C//DTD SVG 20010904//EN"
 "http://www.w3.org/TR/2001/REC-SVG-20010904/DTD/svg10.dtd">
<svg version="1.0" xmlns="http://www.w3.org/2000/svg"
 width="1155.000000pt" height="795.000000pt" viewBox="0 0 1155.000000 795.000000"
 preserveAspectRatio="xMidYMid meet">

<g transform="translate(0.000000,795.000000) scale(0.100000,-0.100000)"
fill="#000000" stroke="none">
<path d="M5990 7403 c-1184 -68 -2304 -567 -3125 -1392 -76 -77 -136 -143
-132 -147 4 -4 71 56 151 133 840 819 1851 1281 3009 1374 196 15 706 7 887
-15 981 -120 1859 -510 2590 -1152 58 -50 170 -159 250 -240 1020 -1043 1506
-2494 1320 -3939 -11 -89 -16 -153 -10 -159 11 -11 16 11 35 154 30 243 37
394 32 705 -6 381 -27 569 -103 921 -262 1226 -1006 2308 -2059 2996 -769 503
-1703 776 -2620 766 -93 -1 -195 -3 -225 -5z"/>
<path d="M1488 4848 c-4 -844 0 -799 -78 -880 -97 -100 -270 -103 -375 -7 -56
52 -76 108 -82 237 l-6 102 -198 0 -199 0 0 -59 c0 -108 21 -261 45 -332 64
-191 201 -316 402 -370 104 -28 326 -31 423 -6 176 46 323 162 393 307 74 156
71 107 74 978 l4 782 -200 0 -200 0 -3 -752z"/>
<path d="M3385 5059 c-260 -38 -435 -225 -435 -464 0 -127 43 -232 122 -300
64 -55 206 -119 365 -164 215 -61 269 -96 267 -172 -3 -104 -137 -148 -298
-99 -68 21 -129 62 -206 136 l-45 43 -115 -100 c-63 -55 -116 -106 -118 -113
-5 -23 142 -169 209 -209 144 -85 359 -119 529 -83 168 35 309 139 373 273 30
64 32 74 32 183 0 106 -2 120 -29 177 -62 135 -186 213 -451 283 -226 60 -285
94 -285 165 0 48 14 71 53 92 108 56 286 22 420 -80 26 -21 49 -37 52 -37 13
0 245 204 245 215 0 20 -118 122 -190 165 -139 82 -318 115 -495 89z"/>
<path d="M4695 5060 c-276 -44 -449 -241 -432 -495 14 -225 138 -336 484 -434
213 -60 268 -95 268 -171 0 -72 -69 -120 -174 -120 -114 0 -209 43 -317 143
l-59 55 -115 -101 c-63 -55 -116 -105 -118 -112 -2 -7 30 -48 71 -91 132 -140
273 -202 477 -211 263 -11 465 89 557 275 37 75 38 78 38 191 0 107 -2 121
-29 178 -61 132 -185 210 -452 284 -237 65 -284 92 -284 166 0 46 14 69 53 90
108 56 300 19 423 -82 23 -19 45 -35 49 -35 14 0 245 202 245 215 0 22 -122
127 -201 172 -41 24 -109 52 -151 62 -92 24 -250 33 -333 21z"/>
<path d="M6155 5054 c-11 -2 -45 -9 -75 -15 -30 -6 -97 -31 -149 -56 -76 -36
-107 -59 -170 -121 -42 -42 -91 -103 -110 -134 -130 -222 -143 -578 -31 -814
82 -171 220 -291 405 -351 62 -20 108 -27 205 -30 249 -10 422 44 574 179 63
56 154 184 140 197 -12 13 -254 151 -262 151 -4 -1 -23 -21 -42 -46 -50 -64
-142 -131 -209 -151 -84 -25 -220 -22 -296 7 -111 43 -196 148 -212 265 l-6
45 542 0 541 0 0 119 c0 241 -65 415 -211 560 -79 79 -166 133 -274 167 -65
21 -104 27 -210 30 -71 1 -139 1 -150 -2z m247 -324 c86 -26 138 -73 182 -162
20 -39 36 -77 36 -84 0 -12 -60 -14 -345 -14 l-345 0 0 23 c1 33 33 98 70 141
91 103 253 142 402 96z"/>
<path d="M7991 5049 c-113 -22 -237 -78 -338 -152 -52 -39 -63 -43 -67 -29 -3
9 -14 50 -26 90 l-21 72 -149 0 -150 0 0 -735 0 -735 200 0 200 0 0 474 0 474
47 41 c105 89 263 141 365 120 63 -14 111 -57 127 -114 7 -27 11 -202 11 -517
l0 -478 201 0 201 0 -5 533 c-6 583 -10 633 -65 751 -51 109 -141 179 -260
205 -61 13 -206 13 -271 0z"/>
<path d="M2260 4295 l0 -735 195 0 195 0 0 735 0 735 -195 0 -195 0 0 -735z"/>
<path d="M2795 3309 c-289 -34 -553 -194 -714 -432 -51 -75 -119 -227 -141
-312 -100 -389 4 -812 260 -1066 214 -212 521 -313 846 -280 249 25 443 112
613 275 169 163 262 357 278 579 3 46 2 113 -1 150 l-8 67 -504 0 -504 0 0
-140 0 -140 356 0 356 0 -6 -27 c-16 -68 -79 -174 -147 -247 -161 -173 -398
-258 -629 -228 -361 48 -613 326 -637 703 -23 364 172 669 499 781 87 29 102
32 228 31 156 0 247 -19 370 -80 60 -29 95 -56 175 -137 l100 -101 137 40 c76
23 140 43 143 46 8 8 -65 116 -122 181 -100 113 -222 206 -338 259 -157 71
-404 103 -610 78z"/>
<path d="M4160 2408 c0 -593 4 -902 11 -944 15 -86 61 -160 123 -199 41 -24
62 -30 124 -34 41 -2 101 2 133 9 l59 13 0 123 c0 111 -2 124 -17 124 -10 0
-37 9 -61 20 -76 34 -72 -16 -72 930 l0 840 -150 0 -150 0 0 -882z"/>
<path d="M6600 2265 l0 -1025 115 0 114 0 11 43 c12 44 14 55 24 100 l7 28 52
-46 c188 -166 486 -200 726 -82 166 80 292 247 343 453 17 71 22 119 22 239 1
183 -16 270 -81 405 -61 126 -170 239 -283 293 -225 107 -525 82 -696 -58 -23
-19 -45 -35 -48 -35 -3 0 -6 160 -6 355 l0 355 -150 0 -150 0 0 -1025z m811
199 c188 -55 299 -234 299 -484 0 -174 -45 -296 -144 -396 -67 -67 -134 -99
-229 -110 -64 -8 -155 10 -217 41 -98 50 -185 170 -215 296 -19 82 -19 246 0
327 40 168 155 299 292 331 61 14 155 12 214 -5z"/>
<path d="M9702 2368 l3 -923 23 -49 c54 -118 126 -166 248 -166 40 0 95 5 123
12 l51 11 0 124 c0 110 -2 123 -17 123 -10 0 -37 9 -61 20 -76 34 -72 -16 -72
930 l0 840 -150 0 -151 0 3 -922z"/>
<path d="M5544 2760 c-56 -23 -72 -103 -29 -145 33 -34 102 -35 133 -2 31 33
30 96 -1 125 -27 25 -73 35 -103 22z"/>
<path d="M5345 2735 c-254 -55 -450 -245 -522 -505 -25 -92 -25 -358 0 -450
81 -300 300 -485 615 -520 168 -18 335 9 462 76 205 108 330 292 366 538 6 46
5 49 -12 41 -37 -16 -83 -17 -113 -2 l-30 15 -6 -36 c-47 -285 -236 -462 -511
-479 -300 -19 -526 159 -580 457 -62 343 117 658 405 713 60 11 62 13 55 37
-10 33 -10 80 -1 108 8 20 6 22 -30 21 -21 0 -65 -6 -98 -14z"/>
<path d="M8656 2730 c-139 -22 -346 -92 -346 -116 0 -12 77 -214 84 -222 2 -1
32 9 68 22 96 37 212 57 318 58 150 0 218 -35 266 -137 19 -41 24 -66 24 -138
l0 -87 -52 29 c-77 44 -157 62 -279 62 -194 2 -309 -39 -420 -150 -100 -101
-139 -199 -139 -351 0 -261 147 -441 396 -485 199 -36 376 -1 505 98 l47 35
14 -51 15 -52 106 -3 107 -3 0 544 c0 455 -2 552 -15 602 -41 157 -149 269
-315 325 -74 26 -281 36 -384 20z m208 -801 c82 -17 154 -64 184 -119 20 -38
23 -56 20 -117 -3 -61 -8 -78 -34 -115 -85 -121 -327 -146 -463 -48 -60 44
-84 102 -79 190 5 85 34 134 106 173 82 45 165 56 266 36z"/>
<path d="M5844 2661 c-17 -11 -34 -31 -38 -46 -9 -34 10 -92 34 -105 33 -17
98 -12 120 10 22 22 27 87 10 120 -9 16 -58 40 -84 40 -6 0 -25 -9 -42 -19z"/>
<path d="M6080 2417 c-54 -27 -64 -121 -17 -151 45 -29 82 -29 116 -1 26 22
31 34 31 68 -1 48 -15 72 -54 87 -35 13 -45 13 -76 -3z"/>
<path d="M6129 2084 c-35 -37 -33 -98 4 -130 62 -53 147 -15 147 66 0 55 -34
90 -88 90 -28 0 -45 -7 -63 -26z"/>
<path d="M6689 1047 c-41 -28 -59 -60 -59 -110 0 -78 40 -116 161 -150 63 -19
92 -44 92 -82 0 -83 -128 -96 -191 -19 -29 35 -30 36 -56 19 -31 -21 -32 -28
-5 -66 65 -91 246 -94 304 -6 40 62 23 150 -37 187 -18 11 -63 29 -100 40 -93
28 -123 75 -78 120 28 28 88 26 133 -4 36 -25 39 -25 85 10 2 1 -1 12 -8 23
-31 59 -176 82 -241 38z"/>
<path d="M7345 1058 c-67 -183 -165 -463 -165 -470 0 -5 17 -8 37 -6 34 3 37
6 53 53 l17 50 111 3 111 3 17 -56 c17 -54 18 -55 57 -55 27 0 38 4 35 13 -3
6 -42 117 -88 245 l-83 232 -49 0 c-30 0 -50 -5 -53 -12z m99 -193 c20 -55 36
-101 36 -102 0 -2 -36 -3 -80 -3 -44 0 -80 3 -80 7 0 23 74 213 81 206 4 -4
24 -53 43 -108z"/>
<path d="M8310 985 l0 -86 -30 16 c-16 8 -52 15 -81 15 -95 0 -148 -55 -156
-164 -4 -50 0 -69 19 -106 44 -86 137 -115 221 -70 31 17 37 17 37 5 0 -10 10
-15 30 -15 l30 0 0 245 0 245 -35 0 -35 0 0 -85z m-49 -125 c33 -18 52 -68 46
-124 -3 -40 -11 -55 -36 -78 -35 -31 -59 -35 -100 -13 -61 31 -74 144 -22 196
31 31 75 38 112 19z"/>
<path d="M9165 1051 c-185 -85 -193 -366 -13 -455 101 -50 244 -26 311 53 15
18 27 36 27 40 0 4 -15 12 -34 18 -31 10 -37 8 -58 -14 -75 -82 -220 -65 -275
32 -28 49 -31 131 -7 182 48 99 199 125 278 46 21 -21 31 -24 61 -19 19 4 35
12 35 18 0 22 -89 97 -127 107 -59 17 -153 13 -198 -8z"/>
<path d="M9620 1063 c0 -4 38 -114 84 -243 l84 -235 53 -3 54 -2 83 233 c45
128 82 239 82 245 0 7 -14 12 -34 12 l-34 0 -57 -162 c-90 -252 -92 -256 -101
-233 -5 11 -38 103 -75 205 l-66 185 -36 3 c-21 2 -37 0 -37 -5z"/>
<path d="M8532 913 c-18 -9 -44 -35 -59 -60 -22 -38 -25 -52 -21 -113 4 -77
21 -109 79 -148 66 -46 204 -18 239 48 8 16 6 22 -15 36 -25 16 -27 16 -53 -9
-56 -54 -142 -43 -168 19 -8 19 -14 36 -14 39 0 3 61 5 135 5 l135 0 0 38 c0
53 -38 121 -80 143 -43 24 -133 25 -178 2z m123 -47 c31 -13 55 -41 55 -65 0
-7 -33 -11 -90 -11 -80 0 -90 2 -90 18 0 22 36 58 65 65 11 3 21 5 23 6 1 0
18 -5 37 -13z"/>
<path d="M7032 674 c-40 -27 -18 -104 29 -104 29 0 59 31 59 60 0 28 -30 60
-55 60 -6 0 -21 -7 -33 -16z"/>
<path d="M7702 674 c-40 -27 -18 -104 29 -104 29 0 59 31 59 60 0 28 -30 60
-55 60 -6 0 -21 -7 -33 -16z"/>
<path d="M9552 674 c-43 -30 -16 -104 39 -104 23 0 49 33 49 63 0 25 -31 57
-55 57 -6 0 -21 -7 -33 -16z"/>
<path d="M10060 670 c-11 -11 -20 -29 -20 -40 0 -25 34 -60 59 -60 49 0 70 76
29 104 -30 21 -44 20 -68 -4z"/>
</g>
</svg>
